<svg id="Camada_1" data-name="Camada 1" xmlns="http://www.w3.org/2000/svg" viewBox="0 0 582.87 110.51"><defs><style>.cls-1{fill:#737474;fill-rule:evenodd;}</style></defs><title>Marca AF - Fundo Branco</title><polygon class="cls-1" points="489.77 16.39 489.77 21.21 489.77 21.88 489.77 22.15 489.51 22.15 488.84 22.15 462.55 22.15 462.55 93.95 462.55 94.62 462.55 94.89 462.28 94.89 461.61 94.89 456.03 94.89 455.36 94.89 455.09 94.89 455.09 94.62 455.09 93.95 455.09 22.15 428.64 22.15 427.97 22.15 427.7 22.15 427.7 21.88 427.7 21.21 427.7 16.39 427.7 15.73 427.7 15.46 427.97 15.46 428.64 15.46 488.84 15.46 489.51 15.46 489.77 15.46 489.77 15.73 489.77 16.39"/><path class="cls-1" d="M350.64,290.19c.15.27.28.54.42.81s.13.27.19.41l0,0a4.28,4.28,0,0,1,.2-.43l.12-.25h0l.1-.18c.07-.15.15-.28.22-.41l.13-.22,30.32-53.61v0h0c.09-.14.18-.28.28-.41a3.11,3.11,0,0,1,.29-.33h0a2,2,0,0,1,.37-.3,1.71,1.71,0,0,1,.4-.21l.34-.11h0l.38-.07.39,0,.42,0h4.82v79.43h-6.8V248.13l-28.52,50.68,0,.05,0,0h0l-.06.11h0a4.2,4.2,0,0,1-.42.57,3.19,3.19,0,0,1-.68.6,2.84,2.84,0,0,1-.83.38,3.12,3.12,0,0,1-.93.13h-.87a3.1,3.1,0,0,1-1.71-.48,3.69,3.69,0,0,1-1.13-1.16h0l-.15-.26-29.46-51v66.38h-6.8V234.75h4.77l.42,0,.4,0,.38.07.35.1h0a2.06,2.06,0,0,1,.42.21,2.15,2.15,0,0,1,.38.31,3.45,3.45,0,0,1,.3.34c.09.13.19.26.28.41h0l31.28,53.9h0Z" transform="translate(-96.35 -219.29)"/><path class="cls-1" d="M233.76,314.18h-6.52V234.75H248a58.27,58.27,0,0,1,6.39.33,41.81,41.81,0,0,1,5.56,1,27.14,27.14,0,0,1,4.76,1.69,19.66,19.66,0,0,1,3.91,2.37,17.39,17.39,0,0,1,3.11,3.13,19.11,19.11,0,0,1,2.29,3.9,21.63,21.63,0,0,1,1.39,4.5,25.51,25.51,0,0,1,.47,5c0,.76,0,1.51-.11,2.25s-.18,1.46-.31,2.16-.31,1.39-.51,2.06a20.72,20.72,0,0,1-.67,2,23.31,23.31,0,0,1-3.17,5.68,20.47,20.47,0,0,1-4.51,4.32,21.91,21.91,0,0,1-4.84,2.54,26.53,26.53,0,0,1-5.08,1.34,3.84,3.84,0,0,1,.41.47l25.39,33.27.82,1.07.33.43h-6.76a4.57,4.57,0,0,1-.75-.05h0l-.26-.06a2.9,2.9,0,0,1-.48-.14,3.43,3.43,0,0,1-.44-.19,3.87,3.87,0,0,1-.43-.27l-.2-.14h0l-.2-.18a4.36,4.36,0,0,1-.38-.37,4.46,4.46,0,0,1-.34-.42c-2.62-3.49-5.16-6.87-7.67-10.18-2.75-3.64-5.13-6.77-7.51-9.89l0-.05c-4.49-5.9-9-11.8-13.3-17.56l-.8-1.07-.32-.43h1.86c2.25,0,4.49,0,6.63-.19a26.54,26.54,0,0,0,6.07-1.1,14.47,14.47,0,0,0,5-2.75,14.72,14.72,0,0,0,3.8-5.2c.23-.52.43-1,.61-1.58a15.9,15.9,0,0,0,.43-1.68,16.2,16.2,0,0,0,.26-1.78c.06-.6.09-1.23.09-1.88a19.73,19.73,0,0,0-.35-3.75,16,16,0,0,0-1.05-3.35,13.32,13.32,0,0,0-1.68-2.81,11.5,11.5,0,0,0-2.23-2.18,14.77,14.77,0,0,0-2.86-1.66,20.46,20.46,0,0,0-3.47-1.2,29.26,29.26,0,0,0-4.13-.73,44.33,44.33,0,0,0-4.76-.25H234.7v73.07h-.94Z" transform="translate(-96.35 -219.29)"/><polygon class="cls-1" points="88.18 94.89 82.48 94.89 81.82 94.89 81.55 94.89 81.55 94.62 81.55 93.95 81.55 16.39 81.55 15.73 81.55 15.46 81.82 15.46 82.48 15.46 88.18 15.46 88.85 15.46 89.12 15.46 89.12 15.73 89.12 16.39 89.12 93.95 89.12 94.62 89.12 94.89 88.85 94.89 88.18 94.89"/><polygon class="cls-1" points="48.38 16.39 48.38 21.11 48.38 21.77 48.38 22.04 48.11 22.04 47.44 22.04 7.57 22.04 7.57 52.7 41.96 52.7 42.63 52.7 42.9 52.7 42.9 52.97 42.9 53.64 42.9 58.35 42.9 59.02 42.9 59.29 42.63 59.29 41.96 59.29 7.57 59.29 7.57 93.95 7.57 94.62 7.57 94.89 7.3 94.89 6.63 94.89 0.94 94.89 0.27 94.89 0 94.89 0 94.62 0 93.95 0 16.39 0 15.73 0 15.46 0.27 15.46 0.94 15.46 47.44 15.46 48.11 15.46 48.38 15.46 48.38 15.73 48.38 16.39"/><path class="cls-1" d="M679.22,274.47c0,1.51-.05,3-.17,4.45s-.28,2.88-.51,4.27-.52,2.74-.86,4.06-.73,2.58-1.18,3.81h0l0,0c-.46,1.25-1,2.45-1.51,3.61a36.55,36.55,0,0,1-1.8,3.33,34.58,34.58,0,0,1-2.08,3.08,35.21,35.21,0,0,1-2.37,2.81l-.18.2h0a33.15,33.15,0,0,1-2.43,2.31,33.92,33.92,0,0,1-2.86,2.2,35.13,35.13,0,0,1-3.12,1.91c-1.08.58-2.2,1.11-3.37,1.6a37.87,37.87,0,0,1-3.58,1.27,41.08,41.08,0,0,1-7.71,1.45q-2,.18-4.11.18c-1.37,0-2.73-.06-4.07-.18a40.75,40.75,0,0,1-7.66-1.45,37.87,37.87,0,0,1-3.58-1.27c-1.16-.49-2.29-1-3.37-1.6a33.58,33.58,0,0,1-3.11-1.91,32.53,32.53,0,0,1-2.87-2.2,33.15,33.15,0,0,1-2.43-2.31h0l-.19-.2a33.52,33.52,0,0,1-2.37-2.81c-.74-1-1.43-2-2.09-3.08s-1.25-2.18-1.81-3.34a38.45,38.45,0,0,1-1.52-3.6,39.23,39.23,0,0,1-1.21-3.85c-.35-1.32-.64-2.68-.87-4.07s-.4-2.81-.51-4.26-.17-2.94-.17-4.46.05-3,.17-4.44.28-2.86.51-4.24.52-2.74.87-4.06.74-2.58,1.19-3.81h0l0-.05c.45-1.23,1-2.42,1.52-3.59s1.16-2.27,1.81-3.34,1.35-2.1,2.09-3.08,1.53-1.91,2.37-2.81l.19-.2h0a33.15,33.15,0,0,1,2.43-2.31,32.19,32.19,0,0,1,2.87-2.21,35.22,35.22,0,0,1,3.12-1.92A34.62,34.62,0,0,1,626,236.8h0a34.28,34.28,0,0,1,3.57-1.28,37.31,37.31,0,0,1,3.75-.91,37.93,37.93,0,0,1,3.91-.55q2-.18,4.08-.18t4.11.18c1.34.12,2.66.3,3.94.54a38.38,38.38,0,0,1,3.77.91,35.26,35.26,0,0,1,3.58,1.27,34.66,34.66,0,0,1,3.36,1.6,32.93,32.93,0,0,1,3.12,1.91,34.45,34.45,0,0,1,2.88,2.22c.91.8,1.79,1.64,2.62,2.53h0a33.41,33.41,0,0,1,2.36,2.81,35.85,35.85,0,0,1,3.87,6.42c.56,1.16,1.06,2.36,1.52,3.61l0,0h0c.45,1.23.84,2.5,1.18,3.8s.63,2.67.86,4.06.4,2.8.51,4.24.17,2.93.17,4.44Zm-7.67,0c0-1.33,0-2.62-.14-3.88s-.23-2.48-.41-3.68-.42-2.34-.69-3.45a32.3,32.3,0,0,0-1-3.25h0c-.36-1.06-.77-2.07-1.21-3.05a30.33,30.33,0,0,0-1.42-2.79,28.82,28.82,0,0,0-1.64-2.53,27.45,27.45,0,0,0-1.85-2.28h0a25.9,25.9,0,0,0-2-2,25.6,25.6,0,0,0-2.26-1.78,26.94,26.94,0,0,0-2.47-1.54,25.77,25.77,0,0,0-2.7-1.28h0a27.54,27.54,0,0,0-2.85-1,29.53,29.53,0,0,0-3-.72,31.84,31.84,0,0,0-3.17-.44c-1.07-.09-2.19-.14-3.34-.14s-2.22.05-3.29.14-2.11.24-3.13.44a29.41,29.41,0,0,0-3,.72,27.36,27.36,0,0,0-2.84,1A26.65,26.65,0,0,0,624,245.7a27.91,27.91,0,0,0-2.28,1.78,26.42,26.42,0,0,0-2,2h0l-.07.08a24.62,24.62,0,0,0-1.88,2.29,29.91,29.91,0,0,0-1.67,2.53c-.52.9-1,1.83-1.45,2.8s-.85,2-1.22,3-.69,2.13-1,3.25-.51,2.28-.69,3.46-.32,2.4-.41,3.66-.14,2.55-.14,3.89,0,2.66.14,3.92.23,2.5.41,3.68.42,2.34.69,3.46.56,2.05.89,3l.08.23c.37,1,.78,2.05,1.22,3s.93,1.89,1.44,2.77a29.91,29.91,0,0,0,1.67,2.53,24.86,24.86,0,0,0,1.89,2.3,24.75,24.75,0,0,0,4.36,3.82,25,25,0,0,0,2.48,1.53,27.35,27.35,0,0,0,2.67,1.27,26.26,26.26,0,0,0,2.83,1,28.78,28.78,0,0,0,3,.72c1,.19,2.06.33,3.13.43s2.17.14,3.3.14a35.85,35.85,0,0,0,6.51-.57,29.78,29.78,0,0,0,5.88-1.71,26.42,26.42,0,0,0,2.68-1.28,23.67,23.67,0,0,0,2.47-1.52,24.22,24.22,0,0,0,2.26-1.78,24.53,24.53,0,0,0,2.05-2l.08-.09h0c.62-.7,1.21-1.43,1.78-2.21s1.13-1.65,1.64-2.53,1-1.81,1.42-2.78.84-2,1.2-3a33.1,33.1,0,0,0,1-3.25c.27-1.11.5-2.27.69-3.46s.32-2.43.41-3.69S671.55,275.78,671.55,274.43Z" transform="translate(-96.35 -219.29)"/><path class="cls-1" d="M490.7,314.07l0-84.79L378,328.09h0l-.41.34a4.4,4.4,0,0,1-3.34,1.37h-9l.27-.23L489.55,220.75h0l.19-.15.11-.08h0a6.76,6.76,0,0,1,1.47-1,5.56,5.56,0,0,1,1.79-.25H498v.4l-.08,94.38v.13H490.7Z" transform="translate(-96.35 -219.29)"/></svg>